<svg width="30" height="70" viewBox="0 0 30 70" fill="none" xmlns="http://www.w3.org/2000/svg">
<path d="M10.0916 29.2779C10.0916 28.9512 10.3564 28.6863 10.6831 28.6863H16.3169C16.6436 28.6863 16.9084 28.9512 16.9084 29.2779V68.8163C16.9084 69.1431 16.6436 69.4079 16.3169 69.4079H10.6831C10.3564 69.4079 10.0916 69.1431 10.0916 68.8163V29.2779Z" stroke="#4E2112" stroke-width="1.18315"/>
<path fill-rule="evenodd" clip-rule="evenodd" d="M12.1123 8.09521C12.1123 8.09521 18.8196 12.2128 18.8196 17.8056C18.8196 23.3984 12.995 22.9088 12.995 22.9088C12.995 22.9088 5.81445 22.0173 9.35016 15.6048C12.4569 11.7772 12.1123 8.09521 12.1123 8.09521Z" stroke="#4E2112" stroke-width="1.18315" stroke-linecap="round" stroke-linejoin="round"/>
<path d="M11.5 30C11.5 30 12.9394 33.4319 16.2754 33.8095" stroke="#4E2112" stroke-width="1.18315"/>
<path d="M10.5234 37.5283C10.5234 37.5283 13.4866 41.0507 16.281 41.4283" stroke="#4E2112" stroke-width="1.18315"/>
<path d="M10.5234 45.1475C10.5234 45.1475 13.4866 48.6698 16.281 49.0475" stroke="#4E2112" stroke-width="1.18315"/>
<path d="M10.5234 52.7661C10.5234 52.7661 13.4866 56.2884 16.281 56.6661" stroke="#4E2112" stroke-width="1.18315"/>
<path d="M10.5234 60.3857C10.5234 60.3857 13.4866 63.9081 16.281 64.2857" stroke="#4E2112" stroke-width="1.18315"/>
<path d="M13.4531 28.8484V25.1626" stroke="#4E2112" stroke-width="1.18315"/>
<path fill-rule="evenodd" clip-rule="evenodd" d="M0.75 0.714286L6.0533 5.76505L0.75 0.714286Z" fill="#E5426B"/>
<path d="M0.75 0.714286L6.0533 5.76505" stroke="#4E2112" stroke-width="0.896323" stroke-linecap="round"/>
<path fill-rule="evenodd" clip-rule="evenodd" d="M22.7383 21.7802L28.0416 26.831L22.7383 21.7802Z" fill="#E5426B"/>
<path d="M22.7383 21.7802L28.0416 26.831" stroke="#4E2112" stroke-width="0.896323" stroke-linecap="round"/>
<path fill-rule="evenodd" clip-rule="evenodd" d="M21.7461 6.42871L24.7461 3.57157L21.7461 6.42871Z" fill="#E5426B"/>
<path d="M21.7461 6.42871L24.7461 3.57157" stroke="#4E2112" stroke-width="0.896323" stroke-linecap="round"/>
<path fill-rule="evenodd" clip-rule="evenodd" d="M0.746094 26.4287L3.74609 23.5716L0.746094 26.4287Z" fill="#E5426B"/>
<path d="M0.746094 26.4287L3.74609 23.5716" stroke="#4E2112" stroke-width="0.896323" stroke-linecap="round"/>
</svg>
