<svg width="46" height="51" viewBox="0 0 46 51" fill="none" xmlns="http://www.w3.org/2000/svg">
<g id="Regular Cupcake Copy">
<path id="Path 14" d="M39.1022 15.7373C37.0783 31.6523 -2.07988 5.14516 1.19432 29.0926" stroke="#4E2112" stroke-width="1.61338" stroke-linecap="round"/>
<path id="Path 15" d="M38.8871 17.6394C41.6936 17.1789 43.7704 19.4264 44.5 21.3236C50.2078 36.164 5.20968 32.776 2.87097 31.3944C0.532258 30.0129 1.63566 26.8625 1 26.7892" stroke="#4E2112" stroke-width="1.61338"/>
<path id="Path 16" d="M7.26591 19.5238C5.061 13.5742 8.94227 10.5509 11.9433 10.2468C18.4743 9.58513 31.8052 18.1206 35.3305 12.8237" stroke="#4E2112" stroke-width="1.61338"/>
<path id="Path 17" d="M16.9023 1C19.756 10.8303 31.986 -3.213 34.0243 14.1071" stroke="#4E2112" stroke-width="1.61338" stroke-linecap="round"/>
<path id="Path 18" d="M16.6344 1C16.2884 1.92957 15.0222 3.84134 14.5502 4.27679C13.0745 5.63849 12.6068 7.70003 14.01 9.76158" stroke="#4E2112" stroke-width="1.61338" stroke-linecap="round"/>
<path id="Path 19" d="M34.6758 13.4265C36.296 12.7266 37.1865 12.9255 37.95 13.4265C38.763 13.96 39.3532 15.2758 38.4177 17.5784C38.1965 18.123 37.2606 19.2782 36.832 19.881" stroke="#4E2112" stroke-width="1.61338"/>
<path id="Path 20" d="M4.73438 31.118C4.73438 31.118 6.87975 36.8468 7.75 40.1949C8.62026 43.543 9.81857 49.9996 9.81857 49.9996H35.5386C35.5386 49.9996 36.8599 42.651 37.9063 38.947C38.9527 35.2429 41.3158 29.2759 41.3158 29.2759" stroke="#4E2112" stroke-width="1.61338" stroke-linejoin="round"/>
<path id="Path 22 Copy 2" d="M11.2891 36C12.2602 39.0636 12.6567 42.147 13.6278 45.2106" stroke="#4E2112" stroke-width="1.07559" stroke-linecap="round"/>
<path id="Oval Copy 6" fill-rule="evenodd" clip-rule="evenodd" d="M37.4888 5.66485C38.0042 5.70103 38.4507 5.31899 38.486 4.81154C38.5213 4.30409 38.1322 3.8634 37.6168 3.82722C37.1014 3.79105 36.6549 4.17309 36.6196 4.68053C36.5842 5.18798 36.9734 5.62867 37.4888 5.66485Z" fill="#4E2112"/>
<path id="Oval Copy 7" fill-rule="evenodd" clip-rule="evenodd" d="M41.2271 4.74395C41.7425 4.78013 42.1889 4.39809 42.2243 3.89064C42.2596 3.3832 41.8705 2.9425 41.3551 2.90632C40.8397 2.87015 40.3932 3.25219 40.3579 3.75963C40.3225 4.26708 40.7117 4.70777 41.2271 4.74395Z" fill="#4E2112"/>
<path id="Oval Copy 8" fill-rule="evenodd" clip-rule="evenodd" d="M40.2896 8.42754C40.805 8.46372 41.2514 8.08168 41.2868 7.57424C41.3221 7.06679 40.933 6.6261 40.4176 6.58992C39.9022 6.55374 39.4557 6.93578 39.4204 7.44323C39.385 7.95067 39.7742 8.39137 40.2896 8.42754Z" fill="#4E2112"/>
</g>
</svg>
