<svg width="95" height="44" viewBox="0 0 95 44" fill="none" xmlns="http://www.w3.org/2000/svg">
<path d="M71.3242 13.4746H80.6273" stroke="#4E2112" stroke-width="1.48116" stroke-linecap="round" stroke-linejoin="round"/>
<path d="M71.3242 36.98H80.6273" stroke="#4E2112" stroke-width="1.48116" stroke-linecap="round" stroke-linejoin="round"/>
<path d="M71.3242 25.2349H94.0004" stroke="#4E2112" stroke-width="1.48116" stroke-linecap="round" stroke-linejoin="round"/>
<path d="M85.1797 18.9902H91.9632" stroke="#4E2112" stroke-width="1.48116" stroke-linecap="round" stroke-linejoin="round"/>
<path d="M73.918 18.9902H78.695" stroke="#4E2112" stroke-width="1.48116" stroke-linecap="round" stroke-linejoin="round"/>
<path d="M83.3867 31.0698H88.1638" stroke="#4E2112" stroke-width="1.48116" stroke-linecap="round" stroke-linejoin="round"/>
<path d="M73.918 31.0698L81.3343 31.1113" stroke="#4E2112" stroke-width="1.48116" stroke-linecap="round" stroke-linejoin="round"/>
<path d="M81 18.9902H83.1214" stroke="#4E2112" stroke-width="1.48116" stroke-linecap="round" stroke-linejoin="round"/>
<path d="M71.2705 4.32382L71.2666 36.9245H63.124C40.8565 36.9663 3.42314 37.0247 2.45846 36.9245C1.49377 36.8243 1.0842 35.7971 1 35.296V28.6171C1.13321 24.7745 4.34621 22.5145 4.34621 22.5145C6.38731 20.8031 15.408 18.1718 15.408 18.1718C15.408 18.1718 24.1819 2.65064 24.6456 2.00498C25.3117 1.07745 27.5874 0.955986 28.642 1.0112C40.6313 1.06641 65.3092 1.1437 68.1067 1.0112C70.9042 0.878693 71.3815 3.1644 71.2705 4.32382Z" stroke="#4E2112" stroke-width="1.48116"/>
<path d="M1.16406 33.9463H71.2039" stroke="#4E2112" stroke-width="1.48116"/>
<path d="M63.3485 37.0783C63.3485 40.4883 60.5684 43.2593 57.1305 43.2593C53.6926 43.2593 50.9125 40.4883 50.9125 37.0783C50.9125 33.6684 53.6926 30.8973 57.1305 30.8973C60.5684 30.8973 63.3485 33.6684 63.3485 37.0783Z" fill="white" stroke="#4E2112" stroke-width="1.48116"/>
<path d="M59.5419 37.0786C59.5419 38.3958 58.4673 39.4703 57.1334 39.4703C55.7995 39.4703 54.725 38.3958 54.725 37.0786C54.725 35.7614 55.7995 34.6869 57.1334 34.6869C58.4673 34.6869 59.5419 35.7614 59.5419 37.0786Z" stroke="#4E2112" stroke-width="1.48116"/>
<path d="M24.1493 37.0783C24.1493 40.4883 21.3691 43.2593 17.9313 43.2593C14.4934 43.2593 11.7132 40.4883 11.7132 37.0783C11.7132 33.6684 14.4934 30.8973 17.9313 30.8973C21.3691 30.8973 24.1493 33.6684 24.1493 37.0783Z" fill="white" stroke="#4E2112" stroke-width="1.48116"/>
<path d="M20.3349 37.0786C20.3349 38.3958 19.2603 39.4703 17.9264 39.4703C16.5925 39.4703 15.5179 38.3958 15.5179 37.0786C15.5179 35.7614 16.5925 34.6869 17.9264 34.6869C19.2603 34.6869 20.3349 35.7614 20.3349 37.0786Z" stroke="#4E2112" stroke-width="1.48116"/>
<path d="M20.4583 14.5845L26.3509 4.40822C26.7481 3.7222 27.4808 3.2998 28.2735 3.2998H32.8752C33.2842 3.2998 33.6158 3.63137 33.6158 4.04039V12.6929C33.6158 13.4331 33.0694 14.0596 32.3361 14.1603L21.1999 15.6893C20.5893 15.7731 20.1494 15.1179 20.4583 14.5845Z" stroke="#4E2112" stroke-width="1.48116"/>
<path d="M32.7949 16.5497L30.8822 16.8104C30.4907 16.8638 30.2104 17.215 30.2451 17.6086L30.2879 18.0926" stroke="#4E2112" stroke-width="1.48116" stroke-linecap="round"/>
</svg>
